<svg xmlns="http://www.w3.org/2000/svg" width="100" height="100"> <style> #p, #q, #r { fill: #fff; stroke: #000; } @media (prefers-color-scheme: dark) { #p, #r { fill: #000; stroke: #fff; } #r { fill: #555; } </style> <defs> <mask id="a"> <path id="q" d="M8.7 32.5h79.6v59.06329H8.49091z" style="stroke-width:1;stroke-miterlimit:4" transform="rotate(-45)" /> </mask> </defs> <path id="p" d="M8.5 32.5h79v59h-79z" style="stroke-width:1;stroke-miterlimit:4" /> <rect id="p" width="55.5" height="55.5" x="29.36" y="-38.63" mask="url(#a)" ry="0" style="stroke-width:1;stroke-miterlimit:4" transform="rotate(45 0 0)" /> <path id="p" d="m25.27624 35.71618-1.34 7.793h-7.793l-1.3945 8.17h7.71l-1.4 7.765h-7.74l-1.34 7.74H4.22l1.34-7.7h-8.175l-1.4 7.74h-7.79l1.34-7.74h-7.74l1.422-7.765h7.656l1.476-8.17578h-7.6836l1.33985-7.79297h7.73828l1.33985-7.73828H2.9364l-1.3672 7.73828H9.745l1.36719-7.73828h7.76562l-1.33984 7.73828zM8.35046 43.50915H.17468l-1.39453 8.17578h8.12109z" transform="rotate(-25)" /> <path id="r" d="M82.43304 9.33238q-2.07812 2.65234-7.27344 2.65234-6.39843 0-6.39843-5.0039V-7.07387q0-4.97656 6.39843-4.97656 3.91016 0 4.97657 1.69531v-1.47656h6.89062V3.75426q0 3.74609 2.24219 3.74609 6.67187 0 6.67187-8.39453 0-18.26563-16.51562-18.26563-9.16016 0-13.28906 5.44141Q62.00726-8.277 62.00726-.89418q0 7.46484 4.15625 13.07031 4.1836 5.57813 13.26172 5.57813 7 0 12.46875-1.33985v4.70313q-5.57813 1.33984-12.35938 1.33984-9.625 0-15.85937-6.64453Q57.4682 9.16832 57.4682-.73012q0-9.8711 6.20703-16.40625 6.23437-6.5625 15.85937-6.5625 9.84375 0 15.53125 5.66016 5.6875 5.63281 5.6875 17.3086 0 5.4414-3.22656 9.10546-3.22656 3.66406-8.42187 3.66406-4.56641 0-6.67188-2.70703zm-3.19922-3.7461V-5.62464q0-1.5039-1.33984-1.5039-1.33985 0-1.33985 1.58593v11.1289q0 1.47657 1.39454 1.47657 1.28515 0 1.28515-1.47656z" transform="rotate(22)" /> <path id="p" d="M105.85297 66.21488H94.95453v10.89844H88.6264V66.21488H77.76703v-6.28906H88.6264V49.02738h6.32813v10.89844h10.89844z" transform="rotate(12)" /></svg>
